<?xml version="1.0" standalone="no"?>
<!DOCTYPE svg PUBLIC "-//W3C//DTD SVG 20010904//EN"
 "http://www.w3.org/TR/2001/REC-SVG-20010904/DTD/svg10.dtd">
<svg version="1.0" xmlns="http://www.w3.org/2000/svg"
 width="200.000000pt" height="200.000000pt" viewBox="0 0 200.000000 200.000000"
 preserveAspectRatio="xMidYMid meet">

<g transform="translate(0.000000,200.000000) scale(0.100000,-0.100000)"
fill="#000000" stroke="none">
<path d="M875 1719 c-93 -7 -116 -12 -209 -46 -195 -73 -364 -251 -434 -460
-24 -70 -26 -93 -26 -223 0 -131 2 -153 27 -225 81 -243 262 -410 532 -491 90
-27 276 -25 377 4 276 78 474 278 538 543 40 167 21 331 -54 484 -77 156 -182
263 -332 338 -129 66 -254 88 -419 76z m250 -55 c299 -72 516 -333 532 -639 7
-131 -13 -222 -73 -344 -129 -262 -427 -420 -718 -382 -176 24 -302 86 -427
211 -94 94 -158 215 -185 350 -51 255 59 534 271 685 179 128 390 170 600 119z"/>
<path d="M838 1560 c-36 -61 -60 -155 -52 -205 14 -88 65 -155 177 -232 53
-36 103 -117 113 -179 19 -128 -96 -248 -206 -215 -79 23 -122 140 -65 177 23
15 29 15 63 2 33 -13 37 -18 35 -47 -1 -28 1 -31 20 -25 44 13 59 36 54 78 -7
50 -48 92 -137 141 -85 47 -105 67 -134 139 l-23 55 -31 -32 c-17 -18 -44 -59
-59 -92 -25 -55 -28 -70 -28 -170 1 -90 5 -120 23 -167 57 -143 169 -220 322
-220 131 0 273 64 340 155 91 124 77 305 -36 442 -20 25 -82 78 -138 119 -141
103 -195 174 -206 271 l-5 50 -27 -45z"/>
<path d="M1020 1572 c-1 -77 58 -158 184 -257 104 -80 147 -136 168 -210 5
-22 6 -16 3 23 -5 58 -41 146 -81 200 -15 18 -60 59 -103 90 -88 65 -138 114
-157 157 l-13 30 -1 -33z"/>
<path d="M1481 980 c-2 -169 -40 -266 -154 -386 -121 -129 -257 -180 -447
-171 -118 6 -195 24 -290 67 l-65 30 40 -35 c52 -46 183 -110 265 -129 124
-29 284 -13 393 39 77 37 183 121 233 184 112 142 129 281 55 435 l-29 61 -1
-95z"/>
</g>
</svg>
