<?xml version="1.0" standalone="no"?>
<!DOCTYPE svg PUBLIC "-//W3C//DTD SVG 20010904//EN"
 "http://www.w3.org/TR/2001/REC-SVG-20010904/DTD/svg10.dtd">
<svg version="1.0" xmlns="http://www.w3.org/2000/svg"
 width="200.000000pt" height="200.000000pt" viewBox="0 0 200.000000 200.000000"
 preserveAspectRatio="xMidYMid meet">

<g transform="translate(0.000000,200.000000) scale(0.100000,-0.100000)"
fill="#000000" stroke="none">
<path d="M664 1579 c-3 -6 -15 -8 -27 -5 -25 6 -83 -23 -119 -61 -57 -59 -58
-71 -58 -456 0 -198 4 -378 10 -408 15 -79 55 -138 115 -168 l49 -26 381 0
380 0 45 25 c49 28 84 73 103 134 9 30 12 147 12 426 0 418 1 408 -57 475 -42
49 -175 94 -192 66 -5 -7 5 -11 29 -11 29 0 36 -3 31 -15 -4 -12 0 -14 22 -9
21 4 24 3 12 -5 -13 -9 -12 -11 5 -12 11 0 15 -3 9 -5 -17 -7 -66 15 -59 26 9
15 -4 12 -21 -4 -8 -8 -11 -22 -8 -33 6 -16 5 -16 -10 2 -9 11 -16 16 -15 10
3 -22 -2 -29 -11 -15 -6 10 -10 11 -10 3 0 -7 -11 -13 -24 -13 -13 0 -39 -6
-57 -14 -30 -12 -85 -21 -114 -17 -5 1 1 8 14 15 l24 14 -22 7 c-12 4 -25 4
-28 1 -4 -3 2 -6 13 -6 16 0 17 -2 4 -10 -21 -14 -53 -13 -44 2 4 6 3 8 -3 5
-5 -3 -44 -8 -86 -11 -56 -3 -75 -1 -71 7 3 8 -11 12 -45 12 -30 0 -47 -4 -44
-10 2 -5 -2 -2 -11 9 -8 10 -20 15 -26 11 -6 -4 -9 -1 -8 7 2 8 -6 13 -21 12
-22 -1 -23 0 -6 13 17 12 17 13 -10 13 -15 0 -26 3 -23 6 4 3 38 5 77 5 39 0
71 4 71 9 0 14 -167 13 -176 -1z m106 -89 c0 -5 -2 -10 -4 -10 -3 0 -8 5 -11
10 -3 6 -1 10 4 10 6 0 11 -4 11 -10z m-33 -37 c7 -19 -71 -92 -99 -93 -37 0
-31 24 16 67 51 46 73 53 83 26z m572 -40 c-15 -17 -32 -2 -23 21 5 13 9 14
20 5 11 -9 12 -15 3 -26z m-222 -9 c52 -39 68 -71 68 -134 0 -66 -18 -99 -76
-138 -44 -31 -131 -28 -174 6 l-28 23 -29 -28 c-38 -36 -72 -99 -99 -181 -12
-37 -29 -74 -37 -82 -14 -13 -15 -13 -3 2 17 23 7 55 -13 39 -22 -18 -41 43
-40 129 1 61 6 85 28 129 32 62 188 224 239 247 43 19 130 13 164 -12z m-307
-32 c0 -20 -106 -105 -120 -97 -18 11 -10 31 28 67 60 58 92 68 92 30z m630
-6 c0 -8 9 -18 20 -21 24 -8 27 -25 4 -25 -9 0 -18 -9 -21 -20 -7 -26 -11 -25
-41 7 -22 24 -23 28 -8 38 9 7 16 17 16 24 0 6 7 11 15 11 8 0 15 -6 15 -14z
m-151 -90 c30 -31 31 -34 11 -29 -13 4 -25 0 -31 -8 -6 -10 -9 -7 -9 13 0 14
-3 33 -6 42 -9 24 -2 20 35 -18z m56 -66 c3 -5 1 -10 -4 -10 -6 0 -11 5 -11
10 0 6 2 10 4 10 3 0 8 -4 11 -10z m-242 -332 c45 -52 -1 -137 -68 -124 -76
15 -90 112 -21 142 37 15 64 10 89 -18z m325 -122 c4 -20 -91 -116 -114 -116
-36 0 -23 32 33 84 59 57 75 63 81 32z"/>
<path d="M950 1205 c0 -14 51 -24 72 -14 l23 10 -24 -5 c-13 -3 -34 -1 -47 4
-13 5 -24 7 -24 5z"/>
<path d="M955 1510 c3 -6 1 -10 -6 -10 -7 0 -10 -3 -6 -6 3 -3 13 -2 22 4 16
8 16 9 1 15 -10 4 -15 3 -11 -3z"/>
</g>
</svg>
